<svg width="16" height="16" viewBox="0 0 16 16" fill="none" xmlns="http://www.w3.org/2000/svg">
<path fill-rule="evenodd" clip-rule="evenodd" d="M7.9987 15.1673C4.04536 15.1673 0.832031 11.954 0.832031 8.00065C0.832031 4.04732 4.04536 0.833984 7.9987 0.833984C11.952 0.833984 15.1654 4.04732 15.1654 8.00065C15.1654 11.954 11.952 15.1673 7.9987 15.1673ZM7.9987 1.83398C4.5987 1.83398 1.83203 4.60065 1.83203 8.00065C1.83203 11.4007 4.5987 14.1673 7.9987 14.1673C11.3987 14.1673 14.1654 11.4007 14.1654 8.00065C14.1654 4.60065 11.3987 1.83398 7.9987 1.83398ZM6.11203 10.3873C5.98536 10.3873 5.85869 10.3406 5.75869 10.2406C5.56536 10.0473 5.56536 9.72727 5.75869 9.53393L7.29203 8.0006L5.75869 6.46727C5.56536 6.27393 5.56536 5.95393 5.75869 5.7606C5.95203 5.56727 6.27203 5.56727 6.46536 5.7606L7.99869 7.29393L9.53203 5.7606C9.72536 5.56727 10.0454 5.56727 10.2387 5.7606C10.432 5.95393 10.432 6.27393 10.2387 6.46727L8.70536 8.0006L10.2387 9.53393C10.432 9.72727 10.432 10.0473 10.2387 10.2406C10.1387 10.3406 10.012 10.3873 9.88536 10.3873C9.75869 10.3873 9.63203 10.3406 9.53203 10.2406L7.99869 8.70727L6.46536 10.2406C6.37203 10.3406 6.23869 10.3873 6.11203 10.3873Z" fill="#999FA6"/>
</svg>
